<?xml version="1.0" encoding="utf-8"?>
<!-- Generator: Adobe Illustrator 23.1.0, SVG Export Plug-In . SVG Version: 6.00 Build 0)  -->
<svg version="1.0" id="Layer_1" xmlns="http://www.w3.org/2000/svg" xmlns:xlink="http://www.w3.org/1999/xlink" x="0px" y="0px"
	 viewBox="0 0 59 51" style="enable-background:new 0 0 59 51;" fill= "#fff" xml:space="preserve">
<style type="text/css">
	.st0{fill:none;stroke:#fff;stroke-width:2;stroke-miterlimit:10;}
</style>
<path class="st0" d="M52.5,50.15h-46c-3.31,0-6-2.69-6-6V6.88c0-3.31,2.69-6,6-6h46c3.31,0,6,2.69,6,6v37.26
	C58.5,47.46,55.81,50.15,52.5,50.15z"/>
<path d="M11.63,15.28c0-1,0.31-1.85,0.94-2.55s1.38-1.05,2.25-1.05c0.89,0,1.65,0.35,2.27,1.05s0.94,1.55,0.94,2.55
	c0,0.98-0.31,1.83-0.94,2.54s-1.38,1.07-2.27,1.07c-0.86,0-1.61-0.36-2.24-1.07S11.63,16.26,11.63,15.28z"/>
<path d="M11.79,38.52c0-0.79,0.3-1.46,0.89-2.02c0.59-0.56,1.31-0.83,2.14-0.83c0.84,0,1.56,0.28,2.16,0.83
	c0.59,0.56,0.89,1.23,0.89,2.02c0,0.78-0.3,1.45-0.89,2.01s-1.31,0.84-2.16,0.84c-0.82,0-1.53-0.28-2.13-0.84
	S11.79,39.3,11.79,38.52z"/>
<path d="M11.79,23.52c0-0.79,0.3-1.46,0.89-2.02c0.59-0.56,1.31-0.83,2.14-0.83c0.84,0,1.56,0.28,2.16,0.83
	c0.59,0.56,0.89,1.23,0.89,2.02c0,0.78-0.3,1.45-0.89,2.01s-1.31,0.84-2.16,0.84c-0.82,0-1.53-0.28-2.13-0.84
	S11.79,24.3,11.79,23.52z"/>
<rect x="11.79" y="23.29" width="6.07" height="15.02"/>
<path d="M24.92,10.02h4.95c0.89,0,1.61,0.56,1.61,1.24v13.47h0.13l7.3-13.94c0.25-0.47,0.83-0.78,1.49-0.78h5.1
	c1.14,0,1.92,0.89,1.49,1.71l-7.21,13.81c-0.16,0.3-0.16,0.63,0,0.93l6.86,13.13c0.43,0.82-0.35,1.71-1.49,1.71h-5.51
	c-0.65,0-1.24-0.3-1.48-0.77L31.6,28.3h-0.13v11.76c0,0.69-0.72,1.24-1.61,1.24h-4.95c-0.89,0-1.61-0.56-1.61-1.24v-28.8
	C23.31,10.58,24.03,10.02,24.92,10.02z"/>
</svg>
